<svg width="681" height="711" viewBox="0 0 681 711" fill="none" xmlns="http://www.w3.org/2000/svg">
<circle cx="341" cy="397" r="314" fill="url(#paint0_linear_738_5161)"/>
<g filter="url(#filter0_d_738_5161)">
<ellipse cx="337.625" cy="580.812" rx="158.265" ry="25.2101" fill="white"/>
</g>
<ellipse cx="351.282" cy="74.6016" rx="68.2353" ry="31.6016" fill="#212121"/>
<ellipse cx="350.919" cy="115.527" rx="96.6068" ry="47.4024" fill="#F2B04D"/>
<path d="M350.912 90.1797C383.469 90.1797 412.92 97.681 434.214 109.783C455.522 121.894 468.567 138.547 468.567 156.833C468.567 175.119 455.522 191.772 434.214 203.883C412.92 215.985 383.469 223.486 350.912 223.486C318.355 223.486 288.905 215.985 267.611 203.883C246.303 191.772 233.258 175.119 233.258 156.833C233.258 138.547 246.303 121.894 267.611 109.783C288.905 97.681 318.355 90.1798 350.912 90.1797Z" fill="#212121" stroke="black"/>
<path d="M431.439 590.438C434.862 578.47 424.194 567.773 411.928 570.874L406.731 572.188L385.901 571.434L377.481 570.73C375.237 570.542 373.196 572.205 372.954 574.418L372.482 578.729C372.427 579.225 372.754 579.667 373.246 579.765L430.389 591.08C430.847 591.171 431.311 590.887 431.439 590.438Z" fill="#212121"/>
<path d="M373.274 579.72C372.731 579.621 372.19 579.976 372.066 580.514L371.811 581.622L371.805 581.621L371.121 584.589C370.997 585.128 371.337 585.645 371.88 585.745L385.44 588.244C385.984 588.344 386.524 587.989 386.648 587.451L386.749 587.015L394.316 586.866C394.384 586.865 394.453 586.871 394.519 586.883L429.596 593.347C430.139 593.448 430.68 593.092 430.804 592.554L431.072 591.389C431.196 590.85 430.857 590.333 430.313 590.233L373.274 579.72Z" fill="black"/>
<rect width="59.9973" height="0.658499" transform="matrix(0.983439 0.181247 -0.224551 0.974461 371.992 580.766)" fill="#9B9596"/>
<path d="M270.856 586.625C268.376 574.427 279.845 564.593 291.832 568.64L296.91 570.355L317.736 571.225L326.186 571.179C328.437 571.167 330.342 572.984 330.412 575.209L330.547 579.544C330.562 580.042 330.202 580.458 329.704 580.516L271.853 587.348C271.39 587.402 270.949 587.083 270.856 586.625Z" fill="#212121"/>
<path d="M329.712 580.498C330.261 580.44 330.772 580.836 330.854 581.382L331.022 582.5L331.027 582.499L331.478 585.512C331.56 586.058 331.181 586.547 330.631 586.605L316.916 588.041C316.367 588.098 315.856 587.702 315.774 587.156L315.709 586.723L308.178 585.985C308.11 585.978 308.041 585.978 307.973 585.985L272.499 589.699C271.95 589.756 271.438 589.36 271.356 588.814L271.179 587.63C271.098 587.084 271.477 586.594 272.026 586.537L329.712 580.498Z" fill="black"/>
<rect width="59.9972" height="0.6585" transform="matrix(-0.994568 0.104118 0.14798 0.988986 330.922 581.648)" fill="#9B9596"/>
<path d="M308.188 454.547H334.045L330.867 569.672C330.837 570.754 329.95 571.617 328.867 571.617H311.42L308.188 454.547Z" fill="#212121"/>
<path d="M368.523 454.547H394.381L391.203 569.672C391.173 570.754 390.286 571.617 389.203 571.617H372.728C372.187 571.617 371.744 571.185 371.729 570.644L368.523 454.547Z" fill="#212121"/>
<path d="M488.791 318.291C487.696 318.322 486.116 318.344 484.177 318.304C480.298 318.225 474.99 317.901 469.271 316.927C457.799 314.972 444.823 310.421 438.281 300.126C434.303 293.863 431.877 285.348 430.498 276.024C429.12 266.707 428.792 256.624 428.981 247.257C429.359 228.517 431.803 212.692 432.003 211.682C432.229 210.541 433.051 209.281 434.298 208.203C435.538 207.132 437.154 206.281 438.894 205.934C440.629 205.587 442.479 205.741 444.215 206.664C445.952 207.587 447.619 209.302 448.943 212.154C448.95 212.168 448.97 212.226 448.985 212.355C448.999 212.477 449.006 212.637 449.004 212.839C448.999 213.241 448.96 213.773 448.888 214.43C448.744 215.743 448.478 217.507 448.151 219.646C447.497 223.917 446.599 229.647 445.943 236.116C444.632 249.04 444.279 264.986 448.815 278.238C451.699 286.666 459.575 292.541 467.557 295.989C471.557 297.717 475.612 298.848 479.131 299.389C482.303 299.877 485.094 299.891 487.026 299.393L489.944 318.248C489.661 318.261 489.273 318.278 488.791 318.291Z" fill="#212121" stroke="#212121"/>
<path d="M521.239 353.715C520.236 355.029 518.115 355.838 515.327 355.658C512.734 355.491 509.64 354.468 506.554 352.299L505.937 351.849C500.412 347.678 499.009 343.356 500.123 339.734L500.126 339.724C500.326 339.024 500.638 338.346 501.045 337.68L501.046 337.679C502.224 335.748 503.65 335.262 504.791 335.234C505.741 335.21 506.529 335.505 506.864 335.653C508.033 338.759 510.781 341.729 515.464 343.82L515.465 343.82C517.935 344.921 520.158 345.611 522.131 345.931C523.326 348.107 523.343 350.959 521.239 353.715Z" fill="#222222" stroke="#7A808C"/>
<path d="M532.068 341.591C530.11 344.242 527.077 345.675 522.523 344.992C520.841 344.74 518.934 344.196 516.802 343.314L515.874 342.916C511.281 340.865 508.746 337.993 507.733 335.128L507.72 335.132C507.719 335.129 507.718 335.127 507.717 335.125L507.722 335.122C506.877 332.748 507.07 330.356 508.047 328.37C509.109 326.212 510.86 325.347 512.374 325.016C513.133 324.849 513.828 324.819 514.334 324.832C514.586 324.838 514.789 324.854 514.927 324.869C514.939 324.87 514.951 324.871 514.962 324.873C516.426 326.566 518.488 327.994 520.883 329.127L521.38 329.356C524.319 330.678 528.264 331.908 532.016 331.53C534.076 334.271 534.456 338.066 532.291 341.275L532.068 341.591Z" fill="#222222" stroke="#7A808C"/>
<path d="M540.621 323.435C539.676 325.838 538.407 327.495 536.968 328.601C535.528 329.708 533.892 330.284 532.181 330.488L532.179 330.489C528.609 330.928 524.738 329.752 521.788 328.425L521.787 328.424C519.195 327.263 517.036 325.786 515.595 324.062L515.477 323.921L515.297 323.89L515.213 324.384L515.296 323.889L515.294 323.889C515.293 323.889 515.291 323.889 515.289 323.889C515.286 323.888 515.281 323.887 515.275 323.886C515.262 323.884 515.244 323.882 515.222 323.879C515.177 323.872 515.113 323.864 515.032 323.856C514.871 323.839 514.641 323.819 514.359 323.812C513.796 323.799 513.018 323.832 512.162 324.02C510.443 324.396 508.388 325.404 507.155 327.908C506.195 329.86 505.916 332.149 506.487 334.452C506.025 334.322 505.433 334.211 504.774 334.227C503.4 334.262 501.782 334.839 500.463 336.751L500.204 337.151C499.852 337.725 499.561 338.319 499.341 338.935C499.296 338.918 499.246 338.899 499.193 338.878C498.865 338.746 498.391 338.552 497.81 338.304C496.647 337.806 495.055 337.089 493.343 336.211C489.892 334.441 486.048 332.066 484.162 329.567L484.161 329.564C482.679 327.613 481.818 325.361 481.518 323.08L481.304 321.457L480.76 322.557C480.27 322.426 479.354 322.164 478.391 321.795C477.705 321.533 477.01 321.221 476.431 320.873C475.839 320.517 475.428 320.159 475.24 319.824L475.239 319.822C474.164 317.926 473.336 312.929 476.704 306.169C478.303 302.959 480.218 300.381 481.978 298.576C482.858 297.674 483.693 296.97 484.424 296.479C485.166 295.979 485.761 295.724 486.165 295.667L486.167 295.667L486.377 295.649C486.895 295.635 487.606 295.812 488.406 296.244C489.307 296.731 490.279 297.52 491.139 298.631L491.214 298.729L491.328 298.78L491.339 298.785L491.667 298.933L491.909 298.668L492.208 298.353C492.514 298.044 492.842 297.748 493.189 297.459L493.19 297.458C496.8 294.488 501.656 293.604 506.542 296.395C509.076 297.842 511.376 299.055 513.395 299.536C514.413 299.778 515.387 299.841 516.301 299.639C517.222 299.436 518.052 298.969 518.785 298.2C519.553 297.392 519.916 296.314 520.126 295.13C520.335 293.952 520.405 292.576 520.525 291.158C520.762 288.377 521.202 285.261 523.185 282.265L523.381 281.975C525.487 278.957 528.361 278.252 530.914 279.182C533.503 280.125 535.859 282.787 536.753 286.7L536.753 286.701C537.554 290.171 536.996 294.033 535.658 297.457C534.319 300.884 532.224 303.808 530.029 305.421L529.331 305.934L530.123 306.285C534.726 308.324 538.067 310.814 539.897 313.677C541.652 316.424 542.044 319.558 540.751 323.092L540.621 323.435Z" fill="#222222" stroke="#7A808C"/>
<path d="M487.427 305.273C487.427 305.273 488.616 301.569 491.404 298.571C491.807 298.121 492.247 297.704 492.72 297.302C496.444 294.171 501.512 293.193 506.624 296.042C511.736 298.891 515.637 300.647 518.28 297.812C520.923 294.976 518.268 288.041 522.66 281.599C527.047 275.169 535.043 278.28 536.976 286.349C538.711 293.52 534.809 302.244 530.262 305.659C529.688 306.079 529.109 306.429 528.542 306.674" stroke="#605E5E" stroke-width="1.5" stroke-miterlimit="10" stroke-linecap="round" stroke-linejoin="round"/>
<path d="M531.818 316.575C531.818 316.575 528.897 311.494 523.968 310.225C519.051 308.961 515.192 311.363 513.568 316.672C512.671 319.608 513.468 322.209 515.343 324.388C516.866 326.172 519.112 327.665 521.761 328.818C524.756 330.128 528.739 331.304 532.438 330.809C536.003 330.346 539.308 328.319 541.205 323.35C544.129 315.689 539.595 309.69 530.258 305.671" stroke="#605E5E" stroke-width="1.5" stroke-miterlimit="10" stroke-linecap="round" stroke-linejoin="round"/>
<path d="M507.501 335.362C508.601 338.374 511.283 341.308 515.994 343.352C518.547 344.458 520.813 345.119 522.793 345.391C527.516 346.049 530.724 344.526 532.773 341.688C535.356 338.105 534.867 333.781 532.431 330.803" stroke="#605E5E" stroke-width="1.5" stroke-miterlimit="10" stroke-linecap="round" stroke-linejoin="round"/>
<path d="M515.343 324.392C515.343 324.392 510.017 323.533 507.77 328.219C506.755 330.339 506.581 332.873 507.498 335.366" stroke="#605E5E" stroke-width="1.5" stroke-miterlimit="10" stroke-linecap="round" stroke-linejoin="round"/>
<path d="M507.517 335.358C507.517 335.358 507.517 335.358 507.506 335.353C507.218 335.212 503.399 333.371 500.903 337.562C500.482 338.266 500.158 338.988 499.951 339.741C498.792 343.652 500.409 348.158 506.075 352.342C512.842 357.331 519.83 356.966 522.089 353.943C524.349 350.919 524.248 347.752 522.808 345.387" stroke="#605E5E" stroke-width="1.5" stroke-miterlimit="10" stroke-linecap="round" stroke-linejoin="round"/>
<path d="M481.12 323.515C480.578 319.842 481.41 316.087 483.347 313.373" stroke="#605E5E" stroke-width="1.5" stroke-miterlimit="10" stroke-linecap="round" stroke-linejoin="round"/>
<path d="M499.817 339.708C499.817 339.708 487.935 335.358 483.956 330.199C482.397 328.189 481.48 325.863 481.145 323.504" stroke="#605E5E" stroke-width="1.5" stroke-miterlimit="10" stroke-linecap="round" stroke-linejoin="round"/>
<path d="M492.119 315.224C492.119 315.224 493.974 322.909 504.008 325.219" stroke="#605E5E" stroke-width="1.5" stroke-miterlimit="10" stroke-linecap="round" stroke-linejoin="round"/>
<path d="M481.148 323.5C481.148 323.5 481.148 323.5 481.137 323.495C480.935 323.451 475.93 322.282 474.899 320.491C473.697 318.424 472.854 313.251 476.202 306.35C479.377 299.805 483.875 295.786 485.927 295.473C487.268 295.264 489.57 296.262 491.396 298.567" stroke="#605E5E" stroke-width="1.5" stroke-miterlimit="10" stroke-linecap="round" stroke-linejoin="round"/>
<path d="M202.642 307.312C203.672 307.685 205.165 308.203 207.018 308.775C210.725 309.921 215.865 311.283 221.601 312.158C233.105 313.911 246.854 313.674 256.303 305.959C262.05 301.267 267.031 293.947 271.274 285.53C275.514 277.12 278.998 267.653 281.766 258.701C287.304 240.794 289.963 225.004 290.091 223.983C290.235 222.829 289.852 221.373 289.008 219.959C288.168 218.552 286.902 217.236 285.359 216.358C283.822 215.483 282.017 215.048 280.079 215.378C278.14 215.707 276.018 216.81 273.863 219.101C273.852 219.112 273.815 219.161 273.76 219.279C273.709 219.39 273.651 219.54 273.59 219.732C273.467 220.115 273.338 220.633 273.2 221.279C272.923 222.571 272.62 224.329 272.258 226.463C271.534 230.723 270.584 236.444 269.171 242.791C266.349 255.471 261.666 270.718 253.192 281.87C247.802 288.962 238.476 292.059 229.815 292.821C225.474 293.203 221.27 293.001 217.76 292.408C214.595 291.873 211.941 291.009 210.264 289.929L201.562 306.906C201.826 307.008 202.189 307.147 202.642 307.312Z" fill="#212121" stroke="#222222"/>
<path d="M160.684 330.71C161.222 332.273 162.981 333.708 165.684 334.415C168.198 335.072 171.456 335.074 175.069 333.986L175.796 333.753C182.352 331.532 185.045 327.871 185.127 324.082L185.127 324.072C185.157 323.345 185.074 322.603 184.897 321.843L184.897 321.842C184.387 319.638 183.186 318.728 182.111 318.342C181.218 318.021 180.376 318.053 180.012 318.088C177.925 320.669 174.382 322.623 169.279 323.134L169.278 323.135C166.587 323.402 164.26 323.358 162.287 323.041C160.467 324.73 159.554 327.432 160.684 330.71Z" fill="#222222" stroke="#605E5E"/>
<path d="M154.252 315.773C155.276 318.906 157.704 321.22 162.243 322.004C163.918 322.295 165.899 322.378 168.201 322.212L169.206 322.126C174.211 321.624 177.522 319.696 179.385 317.294L179.396 317.303C179.397 317.3 179.399 317.299 179.401 317.296L179.397 317.293C180.946 315.305 181.515 312.974 181.213 310.781C180.884 308.399 179.494 307.027 178.162 306.236C177.493 305.839 176.843 305.592 176.359 305.445C176.118 305.371 175.919 305.323 175.784 305.293C175.772 305.291 175.761 305.288 175.75 305.286C173.827 306.433 171.421 307.139 168.791 307.461L168.247 307.522C165.042 307.853 160.91 307.78 157.467 306.24C154.65 308.193 153.095 311.676 154.14 315.403L154.252 315.773Z" fill="#222222" stroke="#605E5E"/>
<path d="M151.83 295.88C151.972 298.458 152.655 300.429 153.673 301.932C154.691 303.435 156.063 304.497 157.623 305.229L157.624 305.231C160.875 306.771 164.92 306.873 168.138 306.541L168.138 306.54C170.965 306.254 173.478 305.531 175.388 304.347L175.545 304.251L175.725 304.278L175.649 304.774L175.726 304.278L175.728 304.278C175.73 304.278 175.731 304.279 175.733 304.279C175.737 304.28 175.742 304.281 175.748 304.282C175.76 304.284 175.778 304.287 175.8 304.291C175.845 304.299 175.908 304.312 175.987 304.329C176.146 304.364 176.371 304.418 176.641 304.501C177.18 304.665 177.907 304.941 178.661 305.388C180.174 306.286 181.807 307.889 182.19 310.654C182.487 312.809 182.031 315.069 180.764 317.076C181.244 317.098 181.841 317.178 182.462 317.401C183.841 317.897 185.289 319.067 185.879 321.614L185.88 321.614C186.033 322.27 186.122 322.925 186.137 323.58C186.186 323.577 186.238 323.575 186.295 323.571C186.648 323.55 187.159 323.515 187.789 323.461C189.05 323.355 190.786 323.175 192.687 322.881C196.519 322.286 200.916 321.241 203.493 319.462L203.494 319.461C205.515 318.074 207.041 316.208 208.044 314.137L208.757 312.663L208.928 313.879C209.434 313.909 210.386 313.948 211.416 313.901C212.15 313.867 212.908 313.791 213.567 313.643C214.241 313.492 214.744 313.28 215.027 313.021L215.029 313.02C216.646 311.558 219.004 307.075 217.935 299.599C217.427 296.05 216.42 293 215.318 290.733C214.766 289.6 214.194 288.669 213.655 287.972C213.108 287.265 212.624 286.835 212.258 286.654L212.257 286.653L212.062 286.571C211.574 286.395 210.843 286.339 209.949 286.497C208.94 286.675 207.77 287.119 206.604 287.902L206.501 287.972L206.378 287.985L206.366 287.986L206.008 288.023L205.862 287.695L205.677 287.302C205.484 286.913 205.266 286.53 205.028 286.146L205.028 286.147C202.536 282.191 198.205 279.822 192.687 280.934C189.827 281.511 187.262 281.939 185.194 281.759C184.151 281.668 183.207 281.422 182.403 280.943C181.593 280.461 180.952 279.756 180.498 278.795C180.023 277.787 180.018 276.649 180.191 275.459C180.363 274.276 180.73 272.948 181.062 271.564C181.712 268.849 182.275 265.753 181.336 262.286L181.239 261.949C180.19 258.421 177.685 256.848 174.969 256.927C172.215 257.008 169.141 258.794 167.061 262.226L167.061 262.228C165.208 265.269 164.523 269.111 164.716 272.782C164.908 276.456 165.976 279.891 167.553 282.112L168.055 282.819L167.192 282.903C162.181 283.391 158.226 284.703 155.589 286.845C153.058 288.9 151.7 291.752 151.815 295.513L151.83 295.88Z" fill="#222222" stroke="#605E5E"/>
<path d="M207.985 295.37C207.985 295.37 208.021 291.481 206.318 287.758C206.077 287.204 205.791 286.67 205.469 286.139C202.919 281.996 198.416 279.473 192.667 280.569C186.919 281.665 182.663 282.104 181.046 278.582C179.43 275.059 184.132 269.311 181.99 261.815C179.849 254.331 171.281 254.768 166.907 261.819C163.003 268.08 163.963 277.589 167.204 282.261C167.617 282.841 168.056 283.355 168.517 283.765" fill="#222222"/>
<path d="M207.985 295.37C207.985 295.37 208.021 291.481 206.318 287.758C206.077 287.204 205.791 286.67 205.469 286.139C202.919 281.996 198.416 279.473 192.667 280.569C186.919 281.665 182.663 282.104 181.046 278.582C179.43 275.059 184.132 269.311 181.99 261.815C179.849 254.331 171.281 254.768 166.907 261.819C163.003 268.08 163.963 277.589 167.204 282.261C167.617 282.841 168.056 283.355 168.517 283.765" stroke="#605E5E" stroke-width="1.5" stroke-miterlimit="10" stroke-linecap="round" stroke-linejoin="round"/>
<path d="M162.287 292.106C162.287 292.106 166.659 288.203 171.736 288.549C176.802 288.895 179.709 292.389 179.58 297.94C179.507 301.009 177.932 303.227 175.467 304.705C173.46 305.92 170.858 306.63 167.981 306.892C164.726 307.193 160.575 307.056 157.22 305.423C153.982 303.861 151.482 300.897 151.245 295.584C150.88 287.392 157.072 283.125 167.199 282.246" fill="#222222"/>
<path d="M162.287 292.106C162.287 292.106 166.659 288.203 171.736 288.549C176.802 288.895 179.709 292.389 179.58 297.94C179.507 301.009 177.932 303.227 175.467 304.705C173.46 305.92 170.858 306.63 167.981 306.892C164.726 307.193 160.575 307.056 157.22 305.423C153.982 303.861 151.482 300.897 151.245 295.584C150.88 287.392 157.072 283.125 167.199 282.246" stroke="#605E5E" stroke-width="1.5" stroke-miterlimit="10" stroke-linecap="round" stroke-linejoin="round"/>
<path d="M179.461 317.599C177.469 320.111 174 322.053 168.886 322.511C166.114 322.757 163.756 322.671 161.79 322.307C157.1 321.445 154.534 318.991 153.482 315.652C152.158 311.438 153.983 307.488 157.232 305.428" fill="#222222"/>
<path d="M179.461 317.599C177.469 320.111 174 322.053 168.886 322.511C166.114 322.757 163.756 322.671 161.79 322.307C157.1 321.445 154.534 318.991 153.482 315.652C152.158 311.438 153.983 307.488 157.232 305.428" stroke="#605E5E" stroke-width="1.5" stroke-miterlimit="10" stroke-linecap="round" stroke-linejoin="round"/>
<path d="M175.481 304.699C175.481 304.699 180.807 305.56 181.465 310.714C181.762 313.047 181.129 315.507 179.475 317.584" fill="#222222"/>
<path d="M175.481 304.699C175.481 304.699 180.807 305.56 181.465 310.714C181.762 313.047 181.129 315.507 179.475 317.584" stroke="#605E5E" stroke-width="1.5" stroke-miterlimit="10" stroke-linecap="round" stroke-linejoin="round"/>
<path d="M179.457 317.604C179.457 317.604 179.457 317.604 179.469 317.603C179.786 317.56 183.991 317.014 185.041 321.778C185.219 322.577 185.3 323.365 185.259 324.145C185.128 328.222 182.176 331.99 175.482 334.18C167.488 336.786 160.97 334.241 159.777 330.661C158.583 327.079 159.676 324.105 161.787 322.314" fill="#222222"/>
<path d="M179.457 317.604C179.457 317.604 179.457 317.604 179.469 317.603C179.786 317.56 183.991 317.014 185.041 321.778C185.219 322.577 185.3 323.365 185.259 324.145C185.128 328.222 182.176 331.99 175.482 334.18C167.488 336.786 160.97 334.241 159.777 330.661C158.583 327.079 159.676 324.105 161.787 322.314" stroke="#605E5E" stroke-width="1.5" stroke-miterlimit="10" stroke-linecap="round" stroke-linejoin="round"/>
<path d="M208.226 314.638C209.896 311.321 210.288 307.496 209.303 304.31Z" fill="#222222"/>
<path d="M208.226 314.638C209.896 311.321 210.288 307.496 209.303 304.31" stroke="#605E5E" stroke-width="1.5" stroke-miterlimit="10" stroke-linecap="round" stroke-linejoin="round"/>
<path d="M185.415 324.17C185.415 324.17 198.063 323.779 203.463 320.134C205.576 318.717 207.178 316.797 208.238 314.664" fill="#222222"/>
<path d="M185.415 324.17C185.415 324.17 198.063 323.779 203.463 320.134C205.576 318.717 207.178 316.797 208.238 314.664" stroke="#605E5E" stroke-width="1.5" stroke-miterlimit="10" stroke-linecap="round" stroke-linejoin="round"/>
<path d="M200.407 303.332C200.407 303.332 196.228 310.043 185.977 309.078Z" fill="#222222"/>
<path d="M200.407 303.332C200.407 303.332 196.228 310.043 185.977 309.078" stroke="#605E5E" stroke-width="1.5" stroke-miterlimit="10" stroke-linecap="round" stroke-linejoin="round"/>
<path d="M208.225 314.626C208.225 314.626 208.225 314.626 208.237 314.625C208.443 314.646 213.561 315.111 215.104 313.736C216.895 312.152 219.323 307.507 218.316 299.903C217.362 292.691 214.357 287.462 212.508 286.519C211.3 285.899 208.801 286.121 206.343 287.735" fill="#222222"/>
<path d="M208.225 314.626C208.225 314.626 208.225 314.626 208.237 314.625C208.443 314.646 213.561 315.111 215.104 313.736C216.895 312.152 219.323 307.507 218.316 299.903C217.362 292.691 214.357 287.462 212.508 286.519C211.3 285.899 208.801 286.121 206.343 287.735" stroke="#605E5E" stroke-width="1.5" stroke-miterlimit="10" stroke-linecap="round" stroke-linejoin="round"/>
<g filter="url(#filter1_i_738_5161)">
<path d="M248.06 243.574C242.178 182.642 290.075 129.898 351.29 129.898C412.506 129.898 460.403 182.642 454.521 243.574L439.686 397.243C435.291 442.773 397.032 477.516 351.29 477.516C305.549 477.516 267.29 442.773 262.894 397.243L248.06 243.574Z" fill="#F2B04D"/>
</g>
<path d="M364.914 217.148C364.914 209.826 370.85 203.891 378.172 203.891H378.852C402.096 203.891 420.939 222.733 420.939 245.977C420.939 259.226 410.198 269.967 396.949 269.967H389.935C376.116 269.967 364.914 258.765 364.914 244.946V217.148Z" fill="white"/>
<ellipse cx="18.3099" cy="18.3089" rx="18.3099" ry="18.3089" transform="matrix(0.975031 0.222068 -0.222096 0.975025 372.117 213.625)" fill="url(#paint1_radial_738_5161)"/>
<ellipse cx="8.06368" cy="8.0632" rx="8.06368" ry="8.0632" transform="matrix(0.975031 0.222068 -0.222096 0.975025 379.844 225.82)" fill="black"/>
<rect x="385.789" y="243.633" width="0.211902" height="10.1706" fill="#212121" fill-opacity="0.49"/>
<rect x="385.789" y="217.352" width="0.211902" height="10.1706" fill="#212121" fill-opacity="0.49"/>
<rect x="377.828" y="235.445" width="0.211888" height="10.1713" transform="rotate(89.9985 377.828 235.445)" fill="#212121" fill-opacity="0.49"/>
<rect x="404.109" y="235.445" width="0.211888" height="10.1713" transform="rotate(89.9985 404.109 235.445)" fill="#212121" fill-opacity="0.49"/>
<rect width="0.211902" height="10.1706" transform="matrix(0.996609 0.0822851 -0.0822959 0.996608 385.148 243.586)" fill="#212121" fill-opacity="0.49"/>
<rect width="0.211902" height="10.1706" transform="matrix(0.996609 0.0822851 -0.0822959 0.996608 387.297 217.391)" fill="#212121" fill-opacity="0.49"/>
<rect width="0.211888" height="10.1713" transform="matrix(-0.0822689 0.99661 -0.996611 -0.0822582 377.891 234.781)" fill="#212121" fill-opacity="0.49"/>
<rect width="0.211888" height="10.1713" transform="matrix(-0.0822689 0.99661 -0.996611 -0.0822582 404.086 236.93)" fill="#212121" fill-opacity="0.49"/>
<rect width="0.211902" height="10.1706" transform="matrix(0.986458 0.164012 -0.164033 0.986455 384.5 243.492)" fill="#212121" fill-opacity="0.49"/>
<rect width="0.211902" height="10.1706" transform="matrix(0.986458 0.164012 -0.164033 0.986455 388.789 217.562)" fill="#212121" fill-opacity="0.49"/>
<rect width="0.211888" height="10.1713" transform="matrix(-0.164007 0.986459 -0.986463 -0.163986 378 234.133)" fill="#212121" fill-opacity="0.49"/>
<rect width="0.211888" height="10.1713" transform="matrix(-0.164007 0.986459 -0.986463 -0.163986 403.914 238.422)" fill="#212121" fill-opacity="0.49"/>
<rect width="0.211901" height="10.1707" transform="matrix(0.969617 0.244627 -0.244658 0.969609 383.781 243.352)" fill="#212121" fill-opacity="0.49"/>
<rect width="0.211901" height="10.1707" transform="matrix(0.969617 0.244627 -0.244658 0.969609 390.211 217.859)" fill="#212121" fill-opacity="0.49"/>
<rect width="0.211889" height="10.1712" transform="matrix(-0.244631 0.969616 -0.969624 -0.244601 378.078 233.508)" fill="#212121" fill-opacity="0.49"/>
<rect width="0.211889" height="10.1712" transform="matrix(-0.244631 0.969616 -0.969624 -0.244601 403.578 239.914)" fill="#212121" fill-opacity="0.49"/>
<rect width="0.2119" height="10.1707" transform="matrix(0.946199 0.323584 -0.323622 0.946186 383.195 243.156)" fill="#212121" fill-opacity="0.49"/>
<rect width="0.2119" height="10.1707" transform="matrix(0.946199 0.323584 -0.323622 0.946186 391.703 218.289)" fill="#212121" fill-opacity="0.49"/>
<rect width="0.211889" height="10.1712" transform="matrix(-0.323596 0.946195 -0.946208 -0.323558 378.328 232.875)" fill="#212121" fill-opacity="0.49"/>
<rect width="0.211889" height="10.1712" transform="matrix(-0.323596 0.946195 -0.946208 -0.323558 403.188 241.359)" fill="#212121" fill-opacity="0.49"/>
<rect width="0.2119" height="10.1707" transform="matrix(0.916364 0.400346 -0.40039 0.916345 382.555 242.883)" fill="#212121" fill-opacity="0.49"/>
<rect width="0.2119" height="10.1707" transform="matrix(0.916364 0.400346 -0.40039 0.916345 393.055 218.812)" fill="#212121" fill-opacity="0.49"/>
<rect width="0.21189" height="10.1712" transform="matrix(-0.400365 0.916356 -0.916375 -0.400321 378.516 232.242)" fill="#212121" fill-opacity="0.49"/>
<rect width="0.21189" height="10.1712" transform="matrix(-0.400365 0.916356 -0.916375 -0.400321 402.617 242.75)" fill="#212121" fill-opacity="0.49"/>
<rect width="0.211899" height="10.1708" transform="matrix(0.880313 0.474393 -0.474441 0.880287 382.008 242.633)" fill="#212121" fill-opacity="0.49"/>
<rect width="0.211899" height="10.1708" transform="matrix(0.880313 0.474393 -0.474441 0.880287 394.461 219.5)" fill="#212121" fill-opacity="0.49"/>
<rect width="0.211891" height="10.1711" transform="matrix(-0.474418 0.8803 -0.880326 -0.474369 378.852 231.664)" fill="#212121" fill-opacity="0.49"/>
<rect width="0.211891" height="10.1711" transform="matrix(-0.474418 0.8803 -0.880326 -0.474369 401.984 244.117)" fill="#212121" fill-opacity="0.49"/>
<rect width="0.211898" height="10.1708" transform="matrix(0.838291 0.545223 -0.545274 0.838258 381.422 242.258)" fill="#212121" fill-opacity="0.49"/>
<rect width="0.211898" height="10.1708" transform="matrix(0.838291 0.545223 -0.545274 0.838258 395.734 220.242)" fill="#212121" fill-opacity="0.49"/>
<rect width="0.211892" height="10.1711" transform="matrix(-0.545251 0.838273 -0.838305 -0.545201 379.172 231.094)" fill="#212121" fill-opacity="0.49"/>
<rect width="0.211892" height="10.1711" transform="matrix(-0.545251 0.838273 -0.838305 -0.545201 401.203 245.406)" fill="#212121" fill-opacity="0.49"/>
<rect width="0.211897" height="10.1709" transform="matrix(0.790582 0.612356 -0.612406 0.790543 380.883 241.875)" fill="#212121" fill-opacity="0.49"/>
<rect width="0.211897" height="10.1709" transform="matrix(0.790582 0.612356 -0.612406 0.790543 396.992 221.086)" fill="#212121" fill-opacity="0.49"/>
<rect width="0.211893" height="10.171" transform="matrix(-0.612385 0.790559 -0.790598 -0.612335 379.617 230.555)" fill="#212121" fill-opacity="0.49"/>
<rect width="0.211893" height="10.171" transform="matrix(-0.612385 0.790559 -0.790598 -0.612335 400.383 246.633)" fill="#212121" fill-opacity="0.49"/>
<rect width="0.211895" height="10.1709" transform="matrix(0.73751 0.675336 -0.675384 0.737466 380.359 241.422)" fill="#212121" fill-opacity="0.49"/>
<rect width="0.211895" height="10.1709" transform="matrix(0.73751 0.675336 -0.675384 0.737466 398.086 222.055)" fill="#212121" fill-opacity="0.49"/>
<rect width="0.211894" height="10.171" transform="matrix(-0.675364 0.737484 -0.737528 -0.675316 380.008 230.078)" fill="#212121" fill-opacity="0.49"/>
<rect width="0.211894" height="10.171" transform="matrix(-0.675364 0.737484 -0.737528 -0.675316 399.398 247.805)" fill="#212121" fill-opacity="0.49"/>
<rect width="0.211894" height="10.171" transform="matrix(0.679435 0.733735 -0.73378 0.679387 379.891 240.961)" fill="#212121" fill-opacity="0.49"/>
<rect width="0.211894" height="10.171" transform="matrix(0.679435 0.733735 -0.73378 0.679387 399.148 223.102)" fill="#212121" fill-opacity="0.49"/>
<rect width="0.211895" height="10.1709" transform="matrix(-0.733762 0.679407 -0.679455 -0.733717 380.453 229.578)" fill="#212121" fill-opacity="0.49"/>
<rect width="0.211895" height="10.1709" transform="matrix(-0.733762 0.679407 -0.679455 -0.733717 398.312 248.859)" fill="#212121" fill-opacity="0.49"/>
<rect width="0.211893" height="10.171" transform="matrix(0.616751 0.787158 -0.787198 0.6167 379.516 240.438)" fill="#212121" fill-opacity="0.49"/>
<rect width="0.211893" height="10.171" transform="matrix(0.616751 0.787158 -0.787198 0.6167 400.172 224.242)" fill="#212121" fill-opacity="0.49"/>
<rect width="0.211897" height="10.1709" transform="matrix(-0.787181 0.616722 -0.616772 -0.787142 381.047 229.164)" fill="#212121" fill-opacity="0.49"/>
<rect width="0.211897" height="10.1709" transform="matrix(-0.787181 0.616722 -0.616772 -0.787142 397.258 249.844)" fill="#212121" fill-opacity="0.49"/>
<rect width="0.211892" height="10.1711" transform="matrix(0.549882 0.835242 -0.835276 0.549831 379.141 239.906)" fill="#212121" fill-opacity="0.49"/>
<rect width="0.211892" height="10.1711" transform="matrix(0.549882 0.835242 -0.835276 0.549831 401.07 225.469)" fill="#212121" fill-opacity="0.49"/>
<rect width="0.211898" height="10.1708" transform="matrix(-0.835261 0.549854 -0.549904 -0.835228 381.539 228.812)" fill="#212121" fill-opacity="0.49"/>
<rect width="0.211898" height="10.1708" transform="matrix(-0.835261 0.549854 -0.549904 -0.835228 396.008 250.742)" fill="#212121" fill-opacity="0.49"/>
<rect width="0.211891" height="10.1711" transform="matrix(0.479282 0.877661 -0.877687 0.479233 378.742 239.32)" fill="#212121" fill-opacity="0.49"/>
<rect width="0.211891" height="10.1711" transform="matrix(0.479282 0.877661 -0.877687 0.479233 401.812 226.711)" fill="#212121" fill-opacity="0.49"/>
<rect width="0.211899" height="10.1708" transform="matrix(-0.877674 0.479257 -0.479306 -0.877648 382.117 228.453)" fill="#212121" fill-opacity="0.49"/>
<rect width="0.211899" height="10.1708" transform="matrix(-0.877674 0.479257 -0.479306 -0.877648 394.719 251.523)" fill="#212121" fill-opacity="0.49"/>
<rect width="0.21189" height="10.1712" transform="matrix(0.40543 0.914126 -0.914146 0.405386 378.508 238.75)" fill="#212121" fill-opacity="0.49"/>
<rect width="0.21189" height="10.1712" transform="matrix(0.40543 0.914126 -0.914146 0.405386 402.516 228.094)" fill="#212121" fill-opacity="0.49"/>
<rect width="0.2119" height="10.1707" transform="matrix(-0.914135 0.40541 -0.405455 -0.914115 382.734 228.18)" fill="#212121" fill-opacity="0.49"/>
<rect width="0.2119" height="10.1707" transform="matrix(-0.914135 0.40541 -0.405455 -0.914115 393.391 252.188)" fill="#212121" fill-opacity="0.49"/>
<rect width="0.211889" height="10.1712" transform="matrix(0.328828 0.94439 -0.944403 0.328789 378.234 238.07)" fill="#212121" fill-opacity="0.49"/>
<rect width="0.211889" height="10.1712" transform="matrix(0.328828 0.94439 -0.944403 0.328789 403.055 229.43)" fill="#212121" fill-opacity="0.49"/>
<rect width="0.2119" height="10.1707" transform="matrix(-0.944394 0.328815 -0.328853 -0.944381 383.344 227.898)" fill="#212121" fill-opacity="0.49"/>
<rect width="0.2119" height="10.1707" transform="matrix(-0.944394 0.328815 -0.328853 -0.944381 392.008 252.711)" fill="#212121" fill-opacity="0.49"/>
<rect width="0.211889" height="10.1712" transform="matrix(0.249994 0.968247 -0.968255 0.249963 378.039 237.5)" fill="#212121" fill-opacity="0.49"/>
<rect width="0.211889" height="10.1712" transform="matrix(0.249994 0.968247 -0.968255 0.249963 403.492 230.914)" fill="#212121" fill-opacity="0.49"/>
<rect width="0.211901" height="10.1707" transform="matrix(-0.968248 0.249989 -0.25002 -0.96824 383.977 227.742)" fill="#212121" fill-opacity="0.49"/>
<rect width="0.211901" height="10.1707" transform="matrix(-0.968248 0.249989 -0.25002 -0.96824 390.562 253.195)" fill="#212121" fill-opacity="0.49"/>
<rect width="0.211888" height="10.1713" transform="matrix(0.169463 0.985536 -0.98554 0.169442 377.914 236.844)" fill="#212121" fill-opacity="0.49"/>
<rect width="0.211888" height="10.1713" transform="matrix(0.169463 0.985536 -0.98554 0.169442 403.828 232.383)" fill="#212121" fill-opacity="0.49"/>
<rect width="0.211901" height="10.1706" transform="matrix(-0.985535 0.169468 -0.16949 -0.985532 384.594 227.633)" fill="#212121" fill-opacity="0.49"/>
<rect width="0.211901" height="10.1706" transform="matrix(-0.985535 0.169468 -0.16949 -0.985532 389.086 253.523)" fill="#212121" fill-opacity="0.49"/>
<rect width="0.211888" height="10.1713" transform="matrix(0.0877831 0.996139 -0.99614 0.0877717 377.891 236.188)" fill="#212121" fill-opacity="0.49"/>
<rect width="0.211888" height="10.1713" transform="matrix(0.0877831 0.996139 -0.99614 0.0877717 404.047 233.867)" fill="#212121" fill-opacity="0.49"/>
<rect width="0.211902" height="10.1706" transform="matrix(-0.996138 0.0877986 -0.08781 -0.996137 385.266 227.57)" fill="#212121" fill-opacity="0.49"/>
<rect width="0.211902" height="10.1706" transform="matrix(-0.996138 0.0877986 -0.08781 -0.996137 387.609 253.742)" fill="#212121" fill-opacity="0.49"/>
<ellipse cx="381.153" cy="229.668" rx="2.99639" ry="2.9962" fill="white"/>
<ellipse cx="391.404" cy="241.404" rx="1.9976" ry="1.99746" fill="white"/>
<path d="M332.438 217.148C332.438 209.826 326.502 203.891 319.18 203.891H318.499C295.256 203.891 276.413 222.733 276.413 245.977C276.413 259.226 287.153 269.967 300.402 269.967H307.417C321.235 269.967 332.438 258.765 332.438 244.946V217.148Z" fill="white"/>
<ellipse cx="18.3099" cy="18.3089" rx="18.3099" ry="18.3089" transform="matrix(-0.975031 0.222068 0.222096 0.975025 325.242 213.625)" fill="url(#paint2_radial_738_5161)"/>
<ellipse cx="8.06368" cy="8.0632" rx="8.06368" ry="8.0632" transform="matrix(-0.975031 0.222068 0.222096 0.975025 317.516 225.82)" fill="black"/>
<rect width="0.211902" height="10.1706" transform="matrix(-1 0 0 1 311.562 243.633)" fill="#212121" fill-opacity="0.49"/>
<rect width="0.211902" height="10.1706" transform="matrix(-1 0 0 1 311.562 217.352)" fill="#212121" fill-opacity="0.49"/>
<rect width="0.211888" height="10.1713" transform="matrix(-2.70187e-05 1 1 2.70151e-05 319.461 235.445)" fill="#212121" fill-opacity="0.49"/>
<rect width="0.211888" height="10.1713" transform="matrix(-2.70187e-05 1 1 2.70151e-05 293.227 235.445)" fill="#212121" fill-opacity="0.49"/>
<rect width="0.211902" height="10.1706" transform="matrix(-0.996609 0.0822851 0.0822959 0.996608 312.188 243.617)" fill="#212121" fill-opacity="0.49"/>
<rect width="0.211902" height="10.1706" transform="matrix(-0.996609 0.0822851 0.0822959 0.996608 310.047 217.422)" fill="#212121" fill-opacity="0.49"/>
<rect width="0.211888" height="10.1713" transform="matrix(0.0822689 0.99661 0.996611 -0.0822582 319.453 234.82)" fill="#212121" fill-opacity="0.49"/>
<rect width="0.211888" height="10.1713" transform="matrix(0.0822689 0.99661 0.996611 -0.0822582 293.258 236.961)" fill="#212121" fill-opacity="0.49"/>
<rect width="0.211902" height="10.1706" transform="matrix(-0.986458 0.164012 0.164033 0.986455 312.875 243.469)" fill="#212121" fill-opacity="0.49"/>
<rect width="0.211902" height="10.1706" transform="matrix(-0.986458 0.164012 0.164033 0.986455 308.586 217.562)" fill="#212121" fill-opacity="0.49"/>
<rect width="0.211888" height="10.1713" transform="matrix(0.164007 0.986459 0.986463 -0.163986 319.352 234.148)" fill="#212121" fill-opacity="0.49"/>
<rect width="0.211888" height="10.1713" transform="matrix(0.164007 0.986459 0.986463 -0.163986 293.445 238.438)" fill="#212121" fill-opacity="0.49"/>
<rect width="0.211901" height="10.1707" transform="matrix(-0.969617 0.244627 0.244658 0.969609 313.5 243.344)" fill="#212121" fill-opacity="0.49"/>
<rect width="0.211901" height="10.1707" transform="matrix(-0.969617 0.244627 0.244658 0.969609 307.094 217.875)" fill="#212121" fill-opacity="0.49"/>
<rect width="0.211889" height="10.1712" transform="matrix(0.244631 0.969616 0.969624 -0.244601 319.219 233.531)" fill="#212121" fill-opacity="0.49"/>
<rect width="0.211889" height="10.1712" transform="matrix(0.244631 0.969616 0.969624 -0.244601 293.727 239.938)" fill="#212121" fill-opacity="0.49"/>
<rect width="0.2119" height="10.1707" transform="matrix(-0.946199 0.323584 0.323622 0.946186 314.188 243.172)" fill="#212121" fill-opacity="0.49"/>
<rect width="0.2119" height="10.1707" transform="matrix(-0.946199 0.323584 0.323622 0.946186 305.695 218.289)" fill="#212121" fill-opacity="0.49"/>
<rect width="0.211889" height="10.1712" transform="matrix(0.323596 0.946195 0.946208 -0.323558 319.039 232.867)" fill="#212121" fill-opacity="0.49"/>
<rect width="0.211889" height="10.1712" transform="matrix(0.323596 0.946195 0.946208 -0.323558 294.18 241.352)" fill="#212121" fill-opacity="0.49"/>
<rect width="0.2119" height="10.1707" transform="matrix(-0.916364 0.400346 0.40039 0.916345 314.781 242.906)" fill="#212121" fill-opacity="0.49"/>
<rect width="0.2119" height="10.1707" transform="matrix(-0.916364 0.400346 0.40039 0.916345 304.258 218.812)" fill="#212121" fill-opacity="0.49"/>
<rect width="0.21189" height="10.1712" transform="matrix(0.400365 0.916356 0.916375 -0.400321 318.781 232.273)" fill="#212121" fill-opacity="0.49"/>
<rect width="0.21189" height="10.1712" transform="matrix(0.400365 0.916356 0.916375 -0.400321 294.688 242.773)" fill="#212121" fill-opacity="0.49"/>
<rect width="0.211899" height="10.1708" transform="matrix(-0.880313 0.474393 0.474441 0.880287 315.328 242.625)" fill="#212121" fill-opacity="0.49"/>
<rect width="0.211899" height="10.1708" transform="matrix(-0.880313 0.474393 0.474441 0.880287 302.875 219.492)" fill="#212121" fill-opacity="0.49"/>
<rect width="0.211891" height="10.1711" transform="matrix(0.474418 0.8803 0.880326 -0.474369 318.477 231.688)" fill="#212121" fill-opacity="0.49"/>
<rect width="0.211891" height="10.1711" transform="matrix(0.474418 0.8803 0.880326 -0.474369 295.344 244.141)" fill="#212121" fill-opacity="0.49"/>
<rect width="0.211898" height="10.1708" transform="matrix(-0.838291 0.545223 0.545274 0.838258 315.938 242.281)" fill="#212121" fill-opacity="0.49"/>
<rect width="0.211898" height="10.1708" transform="matrix(-0.838291 0.545223 0.545274 0.838258 301.625 220.242)" fill="#212121" fill-opacity="0.49"/>
<rect width="0.211892" height="10.1711" transform="matrix(0.545251 0.838273 0.838305 -0.545201 318.172 231.047)" fill="#212121" fill-opacity="0.49"/>
<rect width="0.211892" height="10.1711" transform="matrix(0.545251 0.838273 0.838305 -0.545201 296.133 245.383)" fill="#212121" fill-opacity="0.49"/>
<rect width="0.211897" height="10.1709" transform="matrix(-0.790582 0.612356 0.612406 0.790543 316.438 241.891)" fill="#212121" fill-opacity="0.49"/>
<rect width="0.211897" height="10.1709" transform="matrix(-0.790582 0.612356 0.612406 0.790543 300.352 221.117)" fill="#212121" fill-opacity="0.49"/>
<rect width="0.211893" height="10.171" transform="matrix(0.612385 0.790559 0.790598 -0.612335 317.727 230.578)" fill="#212121" fill-opacity="0.49"/>
<rect width="0.211893" height="10.171" transform="matrix(0.612385 0.790559 0.790598 -0.612335 296.961 246.656)" fill="#212121" fill-opacity="0.49"/>
<rect width="0.211895" height="10.1709" transform="matrix(-0.73751 0.675336 0.675384 0.737466 316.969 241.422)" fill="#212121" fill-opacity="0.49"/>
<rect width="0.211895" height="10.1709" transform="matrix(-0.73751 0.675336 0.675384 0.737466 299.242 222.055)" fill="#212121" fill-opacity="0.49"/>
<rect width="0.211894" height="10.171" transform="matrix(0.675364 0.737484 0.737528 -0.675316 317.344 230.023)" fill="#212121" fill-opacity="0.49"/>
<rect width="0.211894" height="10.171" transform="matrix(0.675364 0.737484 0.737528 -0.675316 297.953 247.766)" fill="#212121" fill-opacity="0.49"/>
<rect width="0.211894" height="10.171" transform="matrix(-0.679435 0.733735 0.73378 0.679387 317.469 240.938)" fill="#212121" fill-opacity="0.49"/>
<rect width="0.211894" height="10.171" transform="matrix(-0.679435 0.733735 0.73378 0.679387 298.188 223.078)" fill="#212121" fill-opacity="0.49"/>
<rect width="0.211895" height="10.1709" transform="matrix(0.733762 0.679407 0.679455 -0.733717 316.859 229.578)" fill="#212121" fill-opacity="0.49"/>
<rect width="0.211895" height="10.1709" transform="matrix(0.733762 0.679407 0.679455 -0.733717 299 248.859)" fill="#212121" fill-opacity="0.49"/>
<rect width="0.211893" height="10.171" transform="matrix(-0.616751 0.787158 0.787198 0.6167 317.867 240.406)" fill="#212121" fill-opacity="0.49"/>
<rect width="0.211893" height="10.171" transform="matrix(-0.616751 0.787158 0.787198 0.6167 297.203 224.211)" fill="#212121" fill-opacity="0.49"/>
<rect width="0.211897" height="10.1709" transform="matrix(0.787181 0.616722 0.616772 -0.787142 316.344 229.141)" fill="#212121" fill-opacity="0.49"/>
<rect width="0.211897" height="10.1709" transform="matrix(0.787181 0.616722 0.616772 -0.787142 300.133 249.82)" fill="#212121" fill-opacity="0.49"/>
<rect width="0.211892" height="10.1711" transform="matrix(-0.549882 0.835242 0.835276 0.549831 318.195 239.891)" fill="#212121" fill-opacity="0.49"/>
<rect width="0.211892" height="10.1711" transform="matrix(-0.549882 0.835242 0.835276 0.549831 296.266 225.445)" fill="#212121" fill-opacity="0.49"/>
<rect width="0.211898" height="10.1708" transform="matrix(0.835261 0.549854 0.549904 -0.835228 315.789 228.773)" fill="#212121" fill-opacity="0.49"/>
<rect width="0.211898" height="10.1708" transform="matrix(0.835261 0.549854 0.549904 -0.835228 301.32 250.719)" fill="#212121" fill-opacity="0.49"/>
<rect width="0.211891" height="10.1711" transform="matrix(-0.479282 0.877661 0.877687 0.479233 318.562 239.32)" fill="#212121" fill-opacity="0.49"/>
<rect width="0.211891" height="10.1711" transform="matrix(-0.479282 0.877661 0.877687 0.479233 295.5 226.711)" fill="#212121" fill-opacity="0.49"/>
<rect width="0.211899" height="10.1708" transform="matrix(0.877674 0.479257 0.479306 -0.877648 315.203 228.453)" fill="#212121" fill-opacity="0.49"/>
<rect width="0.211899" height="10.1708" transform="matrix(0.877674 0.479257 0.479306 -0.877648 302.594 251.5)" fill="#212121" fill-opacity="0.49"/>
<rect width="0.21189" height="10.1712" transform="matrix(-0.40543 0.914126 0.914146 0.405386 318.875 238.75)" fill="#212121" fill-opacity="0.49"/>
<rect width="0.21189" height="10.1712" transform="matrix(-0.40543 0.914126 0.914146 0.405386 294.82 228.07)" fill="#212121" fill-opacity="0.49"/>
<rect width="0.2119" height="10.1707" transform="matrix(0.914135 0.40541 0.405455 -0.914115 314.602 228.156)" fill="#212121" fill-opacity="0.49"/>
<rect width="0.2119" height="10.1707" transform="matrix(0.914135 0.40541 0.405455 -0.914115 303.945 252.164)" fill="#212121" fill-opacity="0.49"/>
<rect width="0.211889" height="10.1712" transform="matrix(-0.328828 0.94439 0.944403 0.328789 319.078 238.133)" fill="#212121" fill-opacity="0.49"/>
<rect width="0.211889" height="10.1712" transform="matrix(-0.328828 0.94439 0.944403 0.328789 294.258 229.484)" fill="#212121" fill-opacity="0.49"/>
<rect width="0.2119" height="10.1707" transform="matrix(0.944394 0.328815 0.328853 -0.944381 313.969 227.93)" fill="#212121" fill-opacity="0.49"/>
<rect width="0.2119" height="10.1707" transform="matrix(0.944394 0.328815 0.328853 -0.944381 305.328 252.75)" fill="#212121" fill-opacity="0.49"/>
<rect width="0.211889" height="10.1712" transform="matrix(-0.249994 0.968247 0.968255 0.249963 319.281 237.484)" fill="#212121" fill-opacity="0.49"/>
<rect width="0.211889" height="10.1712" transform="matrix(-0.249994 0.968247 0.968255 0.249963 293.852 230.914)" fill="#212121" fill-opacity="0.49"/>
<rect width="0.211901" height="10.1707" transform="matrix(0.968248 0.249989 0.25002 -0.96824 313.367 227.734)" fill="#212121" fill-opacity="0.49"/>
<rect width="0.211901" height="10.1707" transform="matrix(0.968248 0.249989 0.25002 -0.96824 306.781 253.188)" fill="#212121" fill-opacity="0.49"/>
<rect width="0.211888" height="10.1713" transform="matrix(-0.169463 0.985536 0.98554 0.169442 319.422 236.844)" fill="#212121" fill-opacity="0.49"/>
<rect width="0.211888" height="10.1713" transform="matrix(-0.169463 0.985536 0.98554 0.169442 293.531 232.383)" fill="#212121" fill-opacity="0.49"/>
<rect width="0.211901" height="10.1706" transform="matrix(0.985535 0.169468 0.16949 -0.985532 312.719 227.617)" fill="#212121" fill-opacity="0.49"/>
<rect width="0.211901" height="10.1706" transform="matrix(0.985535 0.169468 0.16949 -0.985532 308.258 253.508)" fill="#212121" fill-opacity="0.49"/>
<rect width="0.211888" height="10.1713" transform="matrix(-0.0877831 0.996139 0.99614 0.0877717 319.492 236.195)" fill="#212121" fill-opacity="0.49"/>
<rect width="0.211888" height="10.1713" transform="matrix(-0.0877831 0.996139 0.99614 0.0877717 293.32 233.875)" fill="#212121" fill-opacity="0.49"/>
<rect width="0.211902" height="10.1706" transform="matrix(0.996138 0.0877986 0.08781 -0.996137 312.07 227.57)" fill="#212121" fill-opacity="0.49"/>
<rect width="0.211902" height="10.1706" transform="matrix(0.996138 0.0877986 0.08781 -0.996137 309.75 253.742)" fill="#212121" fill-opacity="0.49"/>
<ellipse cx="2.99639" cy="2.9962" rx="2.99639" ry="2.9962" transform="matrix(-1 0 0 1 319.18 226.672)" fill="white"/>
<ellipse cx="1.9976" cy="1.99746" rx="1.9976" ry="1.99746" transform="matrix(-1 0 0 1 307.953 239.406)" fill="white"/>
<path d="M386.414 295.383C386.248 295.54 386.07 295.697 385.898 295.866C386.077 295.697 386.248 295.54 386.414 295.383Z" fill="#222222"/>
<path d="M386.558 295.25C384.743 302.069 380.942 315.258 378.114 317.853C377.526 318.389 376.696 319.083 375.641 319.849V319.839L376.566 303.646C376.631 303.594 376.702 303.551 376.768 303.499C377.171 303.205 377.562 302.922 377.948 302.627C379.122 301.734 380.225 300.851 381.262 299.969C381.624 299.665 381.98 299.37 382.324 299.066C383.635 297.93 384.827 296.849 385.9 295.86C386.072 295.692 386.249 295.534 386.415 295.377C386.463 295.334 386.51 295.292 386.558 295.25Z" fill="white"/>
<path d="M376.336 303.824C376.419 303.772 376.502 303.708 376.58 303.656L375.655 319.849V319.859C374.03 321.037 371.877 322.412 369.273 323.705L369.914 307.827C370.774 307.375 371.61 306.892 372.422 306.398C372.725 306.219 373.027 306.041 373.318 305.851C373.419 305.788 373.52 305.726 373.62 305.662C374.136 305.336 374.64 305 375.127 304.664C375.252 304.58 375.376 304.495 375.494 304.411C375.779 304.223 376.063 304.023 376.336 303.824Z" fill="white"/>
<path d="M373.625 305.663C374.135 305.337 374.639 305 375.131 304.664C374.645 305 374.141 305.337 373.625 305.663Z" fill="white"/>
<path d="M372.398 306.391C372.701 306.212 372.997 306.033 373.294 305.844C373.003 306.033 372.701 306.212 372.398 306.391Z" fill="white"/>
<path d="M372.674 352.57C372.496 352.823 372.319 353.054 372.141 353.285C372.318 353.042 372.496 352.811 372.674 352.57Z" fill="#222222"/>
<path d="M370.24 355.61C370.204 355.652 370.169 355.694 370.128 355.748C369.718 356.221 369.297 356.693 368.871 357.156C368.77 357.261 368.663 357.365 368.562 357.482C367.335 358.775 366.054 359.972 364.725 361.054C364.713 361.064 364.702 361.064 364.69 361.086C363.736 361.854 362.763 362.557 361.761 363.199C361.506 363.366 361.251 363.525 360.99 363.672C360.735 363.829 360.474 363.976 360.213 364.124C359.953 364.271 359.691 364.408 359.43 364.544C358.63 364.964 357.817 365.332 356.987 365.658C356.222 365.952 355.439 366.215 354.65 366.446C354.597 366.456 354.538 366.477 354.484 366.488C354.2 366.561 353.915 366.635 353.63 366.698C353.399 366.75 353.162 366.804 352.931 366.845C352 367.045 351.051 367.182 350.084 367.245C349.782 367.277 349.474 367.287 349.171 367.297C348.869 367.307 348.567 367.319 348.259 367.319C347.393 367.319 346.515 367.277 345.62 367.182C345.146 367.13 344.671 367.056 344.202 366.961C343.977 366.919 343.751 366.867 343.527 366.804C343.295 366.752 343.07 366.688 342.838 366.615C342.613 366.551 342.388 366.477 342.163 366.394C342.026 366.352 341.895 366.3 341.76 366.247C341.582 366.183 341.404 366.109 341.226 366.036C340.698 365.815 340.177 365.563 339.654 365.28C339.483 365.196 339.31 365.091 339.144 364.995C338.973 364.9 338.8 364.796 338.634 364.691C337.959 364.271 337.288 363.808 336.636 363.294C336.47 363.168 336.31 363.041 336.15 362.905C334.857 361.845 333.612 360.615 332.408 359.228C332.302 359.103 332.189 358.976 332.082 358.85C330.107 356.528 328.268 353.806 326.555 350.8C329.194 347.469 333.149 343.76 337.538 343.896C345.395 344.137 348.081 352.103 348.081 352.103C348.081 352.103 356.905 332.968 365.237 339.829C368.54 342.551 370.954 347.531 372.662 352.565C372.483 352.806 372.306 353.037 372.128 353.28C372.098 353.311 372.068 353.353 372.045 353.395C371.636 353.91 371.227 354.435 370.812 354.939C370.62 355.159 370.436 355.39 370.24 355.61Z" fill="#111111"/>
<path d="M370.82 354.943C371.235 354.438 371.645 353.912 372.054 353.398C371.65 353.924 371.241 354.438 370.82 354.943Z" fill="#222222"/>
<path d="M368.57 308.507C368.914 308.339 369.252 308.161 369.584 307.992C369.246 308.171 368.914 308.34 368.57 308.507Z" fill="white"/>
<path d="M368.875 357.174C369.302 356.711 369.723 356.239 370.132 355.766C369.723 356.249 369.302 356.721 368.875 357.174Z" fill="#222222"/>
<path d="M367.297 309.091C367.724 308.902 368.139 308.703 368.554 308.492C368.145 308.703 367.724 308.902 367.297 309.091Z" fill="white"/>
<path d="M364.781 310.184C365.149 310.047 365.517 309.9 365.872 309.742C365.511 309.901 365.149 310.048 364.781 310.184Z" fill="white"/>
<path d="M364.742 361.064C366.07 359.982 367.352 358.784 368.579 357.492C367.351 358.794 366.076 359.992 364.742 361.064Z" fill="#222222"/>
<path d="M363.126 310.787C363.689 310.598 364.235 310.399 364.774 310.178C365.142 310.041 365.504 309.894 365.865 309.736C365.948 309.704 366.025 309.673 366.096 309.641C366.512 309.462 366.915 309.283 367.318 309.094C367.745 308.905 368.166 308.706 368.575 308.495C368.919 308.326 369.251 308.159 369.589 307.98C369.696 307.928 369.803 307.875 369.904 307.812L369.263 323.69C367.194 324.721 364.834 325.708 362.242 326.506L363.126 310.797V310.787Z" fill="white"/>
<path d="M361.766 363.214C362.768 362.573 363.74 361.869 364.695 361.102C363.746 361.869 362.768 362.573 361.766 363.214Z" fill="#222222"/>
<path d="M362.368 311.055C362.071 311.16 361.769 311.254 361.461 311.338C361.77 311.255 362.072 311.16 362.368 311.055Z" fill="#222222"/>
<path d="M360.234 364.139C360.495 363.992 360.757 363.845 361.011 363.688C360.756 363.855 360.495 364.002 360.234 364.139Z" fill="#222222"/>
<path d="M359.094 311.985C359.538 311.879 359.971 311.764 360.405 311.648C359.971 311.774 359.533 311.879 359.094 311.985Z" fill="white"/>
<path d="M359.445 364.561C359.706 364.424 359.968 364.288 360.228 364.141C359.967 364.288 359.706 364.435 359.445 364.561Z" fill="#222222"/>
<path d="M356.578 312.494C356.934 312.442 357.29 312.378 357.645 312.305C357.296 312.378 356.934 312.44 356.578 312.494Z" fill="white"/>
<path d="M355.812 312.622C355.991 312.601 356.168 312.569 356.34 312.539C356.162 312.571 355.991 312.602 355.812 312.622Z" fill="#222222"/>
<path d="M354.672 366.46C355.461 366.229 356.243 365.966 357.008 365.672C356.243 365.976 355.467 366.229 354.672 366.46Z" fill="#222222"/>
<path d="M354.511 312.808C354.95 312.767 355.383 312.703 355.809 312.63C355.987 312.608 356.159 312.576 356.337 312.546C356.408 312.536 356.485 312.524 356.556 312.504C356.912 312.452 357.274 312.388 357.624 312.315C358.121 312.221 358.614 312.116 359.094 311.989C359.533 311.883 359.972 311.778 360.405 311.653C360.76 311.557 361.11 311.463 361.454 311.348C361.763 311.264 362.065 311.169 362.361 311.065C362.616 310.991 362.871 310.908 363.115 310.812V310.823L362.231 326.532C359.794 327.288 357.143 327.877 354.32 328.192L354.51 312.817V312.808H354.511Z" fill="white"/>
<path d="M354.499 312.781C354.042 312.845 353.586 312.887 353.117 312.928C353.586 312.887 354.043 312.833 354.499 312.781Z" fill="white"/>
<path d="M353.648 366.695C353.933 366.632 354.218 366.558 354.502 366.484C354.218 366.558 353.939 366.632 353.648 366.695Z" fill="#222222"/>
<path d="M352.945 366.85C353.177 366.808 353.414 366.756 353.645 366.703C353.414 366.765 353.182 366.808 352.945 366.85Z" fill="#222222"/>
<path d="M350.977 313.055C351.255 313.055 351.534 313.045 351.813 313.023C351.534 313.035 351.255 313.055 350.977 313.055Z" fill="#222222"/>
<path d="M349.18 367.302C349.482 367.292 349.79 367.28 350.093 367.25C349.79 367.28 349.488 367.29 349.18 367.302Z" fill="#222222"/>
<path d="M348.258 367.318C348.566 367.318 348.868 367.308 349.171 367.297C348.869 367.308 348.567 367.318 348.258 367.318Z" fill="#222222"/>
<path d="M348.408 313.065C349.28 313.097 350.134 313.097 350.976 313.065C351.255 313.065 351.534 313.045 351.812 313.033C352.263 313.012 352.708 312.981 353.14 312.95C353.609 312.908 354.066 312.866 354.522 312.802V312.813L354.333 328.187C351.628 328.491 348.765 328.543 345.77 328.25L345.289 312.719C345.324 312.719 345.36 312.729 345.395 312.729C345.573 312.771 345.757 312.802 345.941 312.823C346.208 312.865 346.475 312.907 346.748 312.938C346.884 312.948 347.027 312.97 347.169 312.98C347.335 313 347.501 313.012 347.667 313.022C347.911 313.045 348.159 313.055 348.408 313.065Z" fill="white"/>
<path d="M345.945 312.828C346.212 312.87 346.485 312.912 346.752 312.944C346.479 312.913 346.212 312.871 345.945 312.828Z" fill="#222222"/>
<path d="M345.296 312.708L345.776 328.24C344.259 328.092 342.711 327.851 341.127 327.504C339.585 327.167 338.144 326.757 336.786 326.285L335.938 309.062C336.085 309.146 336.234 309.23 336.382 309.305C336.898 309.599 337.414 309.872 337.93 310.125C338.132 310.23 338.339 310.335 338.541 310.429C339.947 311.102 341.376 311.669 342.823 312.09C343.048 312.174 343.28 312.237 343.505 312.289C343.962 312.415 344.418 312.53 344.881 312.626C345.016 312.655 345.153 312.676 345.296 312.708Z" fill="white"/>
<path d="M345.389 312.727C345.353 312.727 345.318 312.717 345.282 312.717C345.14 312.685 345.004 312.663 344.867 312.633C345.039 312.663 345.211 312.695 345.389 312.727Z" fill="white"/>
<path d="M343.531 366.812C343.757 366.876 343.982 366.928 344.207 366.97C343.982 366.928 343.75 366.875 343.531 366.812Z" fill="#222222"/>
<path d="M342.812 312.086C343.038 312.16 343.264 312.233 343.495 312.285C343.269 312.233 343.037 312.17 342.812 312.086Z" fill="#222222"/>
<path d="M342.156 366.398C342.382 366.482 342.607 366.556 342.832 366.619C342.607 366.556 342.382 366.482 342.156 366.398Z" fill="#222222"/>
<path d="M341.234 366.047C341.413 366.12 341.59 366.194 341.768 366.257C341.591 366.194 341.413 366.12 341.234 366.047Z" fill="#C91C18"/>
<path d="M339.156 365C339.322 365.095 339.495 365.199 339.666 365.284C339.494 365.2 339.328 365.105 339.156 365Z" fill="#C91C18"/>
<path d="M338.633 364.688C338.799 364.793 338.971 364.897 339.143 364.992C338.971 364.898 338.805 364.793 338.633 364.688Z" fill="#C91C18"/>
<path d="M335.924 309.072L336.772 326.295C333.759 325.264 331.192 323.919 328.992 322.428L327.906 303.398C328.274 303.703 328.642 303.997 329.01 304.292C329.241 304.481 329.472 304.66 329.709 304.839C329.946 305.028 330.183 305.217 330.421 305.386C330.658 305.575 330.901 305.754 331.138 305.921C331.619 306.278 332.111 306.625 332.603 306.962C332.869 307.151 333.137 307.33 333.404 307.508C333.848 307.803 334.3 308.097 334.756 308.37C335.04 308.549 335.319 308.716 335.604 308.885C335.71 308.946 335.817 309.008 335.924 309.072Z" fill="white"/>
<path d="M336.156 362.922C336.316 363.059 336.477 363.185 336.643 363.31C336.482 363.185 336.316 363.059 336.156 362.922Z" fill="#C91C18"/>
<path d="M335.938 309.062C336.085 309.146 336.234 309.231 336.382 309.315C336.234 309.241 336.085 309.158 335.938 309.073V309.062Z" fill="#222222"/>
<path d="M335.93 309.046V309.056C335.823 308.993 335.716 308.931 335.609 308.867C335.716 308.931 335.823 308.983 335.93 309.046Z" fill="#222222"/>
<path d="M333.406 307.508C333.851 307.802 334.302 308.085 334.758 308.369C334.302 308.097 333.851 307.802 333.406 307.508Z" fill="#222222"/>
<path d="M332.086 358.852C332.193 358.977 332.306 359.104 332.412 359.23C332.306 359.114 332.199 358.987 332.086 358.852Z" fill="#C91C18"/>
<path d="M331.125 305.914C331.611 306.271 332.098 306.618 332.59 306.955C332.098 306.618 331.606 306.271 331.125 305.914Z" fill="#222222"/>
<path d="M329.727 304.836C329.964 305.025 330.201 305.204 330.438 305.383C330.201 305.214 329.964 305.025 329.727 304.836Z" fill="#222222"/>
<path d="M329 304.289C329.231 304.468 329.463 304.657 329.7 304.836C329.463 304.657 329.231 304.478 329 304.289Z" fill="#222222"/>
<path d="M327.915 303.392L329 322.422C326.563 320.761 324.582 318.912 322.981 317.052V317.042L322.133 298.211C322.4 298.453 322.672 298.716 322.945 298.967C322.987 299.009 323.034 299.062 323.082 299.093C323.491 299.481 323.906 299.871 324.333 300.259C324.76 300.647 325.187 301.037 325.626 301.425C326.373 302.089 327.138 302.741 327.915 303.392Z" fill="white"/>
<path d="M324.32 300.266C324.747 300.654 325.174 301.043 325.613 301.432C325.174 301.043 324.747 300.655 324.32 300.266Z" fill="#222222"/>
<path d="M323.07 299.102C323.48 299.49 323.901 299.879 324.322 300.268C323.895 299.879 323.48 299.491 323.07 299.102Z" fill="#222222"/>
<path d="M322.977 317.057C318.826 312.244 317.183 307.401 316.542 305.793C315.848 304.038 313.69 295.484 312 288.602C312.089 288.665 312.184 288.727 312.273 288.801C312.457 288.926 312.646 289.074 312.843 289.242C312.848 289.242 312.854 289.253 312.866 289.264C313.021 289.39 313.181 289.527 313.352 289.674C313.513 289.811 313.679 289.958 313.845 290.105C313.963 290.211 314.076 290.316 314.194 290.431C314.313 290.537 314.438 290.652 314.556 290.768C315.303 291.472 316.116 292.27 316.993 293.143C317.426 293.573 317.871 294.015 318.339 294.478C318.743 294.888 319.158 295.298 319.585 295.718C319.763 295.907 319.947 296.086 320.137 296.265C320.184 296.317 320.237 296.37 320.291 296.422C320.795 296.915 321.317 297.431 321.85 297.946C321.945 298.03 322.04 298.113 322.129 298.209V298.219L322.977 317.049L322.977 317.057Z" fill="white"/>
<path d="M322.133 298.188C322.4 298.44 322.672 298.693 322.945 298.955C322.672 298.703 322.399 298.44 322.133 298.199V298.188Z" fill="#222222"/>
<path d="M321.856 297.938C321.323 297.423 320.8 296.908 320.297 296.414C320.8 296.909 321.323 297.413 321.856 297.938Z" fill="#222222"/>
<path d="M319.57 295.711C319.754 295.89 319.938 296.068 320.122 296.258C319.932 296.079 319.748 295.9 319.57 295.711Z" fill="#222222"/>
<path d="M316.992 293.133C317.425 293.563 317.876 294.005 318.338 294.468C317.87 294.005 317.425 293.563 316.992 293.133Z" fill="#222222"/>
<path d="M314.55 290.774C314.431 290.658 314.306 290.543 314.188 290.438C314.306 290.543 314.425 290.648 314.55 290.774Z" fill="#222222"/>
<path d="M313.851 290.103C313.685 289.956 313.52 289.809 313.359 289.672C313.52 289.809 313.68 289.956 313.851 290.103Z" fill="white"/>
<path d="M312.875 289.258C313.035 289.383 313.195 289.52 313.361 289.668C313.189 289.52 313.029 289.383 312.875 289.258Z" fill="#222222"/>
<path d="M354.322 328.185C357.144 327.87 359.795 327.282 362.233 326.525C364.824 325.727 367.184 324.739 369.254 323.71C371.857 322.418 374.009 321.041 375.635 319.863C376.691 319.096 377.521 318.403 378.108 317.867C380.936 315.273 384.737 302.085 386.552 295.264C389.82 292.248 391.854 290.389 392.613 291.482C394.268 293.867 388.474 331.202 372.664 352.576C370.956 347.542 368.543 342.562 365.239 339.84C356.907 332.978 348.083 352.114 348.083 352.114C348.083 352.114 345.397 344.149 337.54 343.907C333.152 343.77 329.196 347.48 326.557 350.811H326.551C313.493 327.955 308.085 289.285 310.012 288.035C310.438 287.762 311.109 287.993 311.992 288.603C313.682 295.485 315.841 304.039 316.534 305.794C317.175 307.401 318.818 312.246 322.969 317.058C324.57 318.918 326.551 320.767 328.988 322.428C331.188 323.92 333.756 325.265 336.768 326.294C338.126 326.766 339.567 327.176 341.109 327.513C342.692 327.859 344.24 328.101 345.758 328.248C348.754 328.542 351.617 328.49 354.322 328.185Z" fill="#222222"/>
<path d="M325.961 361.891C325.961 361.891 345.465 395.853 370.799 364.234" stroke="white" stroke-width="1.5" stroke-miterlimit="10" stroke-linecap="round" stroke-linejoin="round"/>
<path d="M406.876 199.15C406.201 205.837 398.031 198.257 387.12 197.156C376.209 196.055 366.689 201.849 367.364 195.162C368.039 188.476 377.431 183.947 388.342 185.048C399.253 186.149 407.551 192.463 406.876 199.15Z" fill="#212121"/>
<path d="M334.371 195.95C334.926 202.648 325.512 196.684 314.583 197.59C303.654 198.495 295.349 205.927 294.794 199.229C294.239 192.531 302.649 186.368 313.578 185.462C324.507 184.557 333.816 189.253 334.371 195.95Z" fill="#212121"/>
<path d="M382.969 402.666L405.195 382.885C409.521 379.035 414.172 375.569 419.097 372.524L443.323 357.549L442.494 370.143L419.364 384.56C412.237 389.002 405.596 394.18 399.55 400.009L382.032 416.898L382.969 402.666Z" fill="#212121"/>
<path d="M317.829 411.732L290.232 384.991L259.357 360.642L260.829 373.858L287.272 394.555L311.308 418.765L317.829 411.732Z" fill="#212121"/>
<path d="M349.266 500.477V519.15" stroke="#9B9596" stroke-width="3" stroke-dasharray="2 2"/>
<path d="M384.172 414.324H438.157V446.625L438.15 447.562C437.648 487.193 405.367 519.165 365.617 519.165H337.595C297.532 519.165 265.055 454.387 265.055 414.324H310.88V388.086H384.172V414.324Z" fill="#212121"/>
<path d="M294.476 424.367V424.905H294.928V425.867H295.976V425.982H294.476V426.521C294.476 426.832 294.469 427.142 294.457 427.45L295.953 427.508C295.928 428.171 295.877 428.827 295.801 429.476L294.313 429.303C294.241 429.921 294.145 430.533 294.025 431.136L295.495 431.426C295.367 432.075 295.214 432.715 295.036 433.346L293.594 432.94C293.425 433.538 293.234 434.126 293.021 434.704L294.427 435.223C294.198 435.843 293.945 436.451 293.67 437.047L292.31 436.419C292.05 436.982 291.768 437.533 291.466 438.071L292.771 438.805C292.449 439.38 292.105 439.941 291.739 440.487L290.494 439.653C290.149 440.168 289.785 440.67 289.401 441.155L290.578 442.083C290.17 442.6 289.742 443.1 289.295 443.583L288.195 442.566C287.775 443.021 287.336 443.459 286.882 443.88L287.899 444.979C287.416 445.426 286.916 445.855 286.399 446.263L285.471 445.086C284.985 445.469 284.485 445.834 283.97 446.179L284.803 447.424C284.257 447.789 283.696 448.133 283.121 448.456L282.388 447.15C281.849 447.453 281.298 447.734 280.734 447.994L281.362 449.354C280.766 449.629 280.158 449.882 279.538 450.111L279.021 448.705C278.443 448.918 277.854 449.109 277.256 449.277L277.661 450.721C277.031 450.898 276.39 451.05 275.741 451.179L275.451 449.71C274.848 449.829 274.237 449.926 273.618 449.998L273.792 451.485C273.311 451.542 272.825 451.584 272.336 451.613V450.685H271.787L271.767 450.142C271.458 450.154 271.148 450.159 270.836 450.159V448.735H272.336V446.786H270.836V444.837H272.336V442.887H270.836V440.938H272.336V438.988H270.836V437.039H272.336V435.089H270.836V433.14H272.336V431.19H270.836V429.241H272.336V427.291H270.836V425.867H271.884V425.342H272.336V424.367H273.979V425.867H276.073V424.367H278.168V425.867H280.263V424.367H282.358V425.867H284.453V424.367H286.548V425.867H288.643V424.367H290.738V425.867H292.833V424.367H294.476Z" fill="#212121" stroke="#9B9596" stroke-width="3" stroke-dasharray="2 2"/>
<path d="M369.174 403.531V404.631H369.678V405.031H370.674V406.83H369.174V409.029H370.674V411.229H369.174V413.429H370.674V415.628H369.174V417.827H370.674V420.026H369.174V421.126C369.174 421.425 369.167 421.723 369.154 422.019L370.651 422.082C370.624 422.724 370.569 423.359 370.487 423.986L369.001 423.793C368.924 424.386 368.821 424.971 368.694 425.547L370.156 425.869C370.018 426.495 369.854 427.111 369.664 427.715L368.234 427.265C368.055 427.833 367.852 428.392 367.626 428.938L369.01 429.511C368.765 430.102 368.494 430.68 368.2 431.243L366.872 430.55C366.597 431.077 366.299 431.591 365.98 432.091L367.244 432.897C366.901 433.435 366.533 433.956 366.146 434.461L364.958 433.549C364.596 434.02 364.214 434.476 363.812 434.913L364.917 435.926C364.486 436.395 364.035 436.846 363.565 437.276L362.553 436.172C362.115 436.573 361.661 436.956 361.189 437.318L362.102 438.505C361.597 438.893 361.076 439.261 360.538 439.604L359.731 438.341C359.232 438.66 358.718 438.957 358.19 439.232L358.883 440.561C358.32 440.854 357.742 441.124 357.151 441.369L356.578 439.985C356.032 440.212 355.474 440.415 354.905 440.594L355.355 442.023C354.751 442.214 354.135 442.378 353.509 442.517L353.187 441.054C352.611 441.181 352.026 441.283 351.434 441.36L351.627 442.847C351 442.928 350.364 442.983 349.722 443.011L349.658 441.515C349.363 441.527 349.065 441.533 348.767 441.533C348.468 441.533 348.17 441.527 347.874 441.515L347.81 443.011C347.167 442.983 346.532 442.928 345.905 442.847L346.1 441.36C345.507 441.283 344.922 441.181 344.347 441.054L344.022 442.517C343.397 442.378 342.781 442.214 342.177 442.023L342.628 440.594C342.059 440.415 341.501 440.212 340.955 439.985L340.381 441.369C339.79 441.124 339.212 440.855 338.648 440.561L339.343 439.232C338.815 438.957 338.301 438.66 337.802 438.341L336.994 439.604C336.456 439.26 335.935 438.893 335.431 438.505L336.344 437.318C335.872 436.956 335.417 436.573 334.979 436.172L333.967 437.276C333.497 436.846 333.046 436.395 332.615 435.926L333.721 434.913C333.32 434.476 332.937 434.02 332.575 433.549L331.387 434.461C330.999 433.956 330.631 433.435 330.288 432.897L331.552 432.091C331.233 431.592 330.935 431.077 330.66 430.55L329.332 431.243C329.038 430.68 328.768 430.102 328.522 429.511L329.907 428.938C329.681 428.392 329.478 427.833 329.299 427.265L327.868 427.715C327.678 427.11 327.513 426.495 327.375 425.869L328.839 425.547C328.712 424.971 328.61 424.386 328.532 423.793L327.045 423.986C326.963 423.359 326.908 422.724 326.881 422.082L328.379 422.019C328.366 421.723 328.359 421.425 328.359 421.126V420.026H326.859V417.827H328.359V415.628H326.859V413.429H328.359V411.229H326.859V409.029H328.359V406.83H326.859V405.031H327.855V404.631H328.359V403.531H329.847V405.031H331.838V403.531H333.83V405.031H335.821V403.531H337.812V405.031H339.805V403.531H341.796V405.031H343.787V403.531H345.779V405.031H347.771V403.531H349.763V405.031H351.754V403.531H353.745V405.031H355.737V403.531H357.729V405.031H359.72V403.531H361.712V405.031H363.703V403.531H365.694V405.031H367.687V403.531H369.174Z" fill="#212121" stroke="#9B9596" stroke-width="3" stroke-dasharray="2 2"/>
<path d="M410.954 424.367V424.905H410.502V425.867H409.454V425.982H410.954V426.521C410.954 426.832 410.961 427.142 410.973 427.45L409.477 427.508C409.502 428.171 409.553 428.827 409.629 429.476L411.116 429.303C411.189 429.921 411.285 430.533 411.404 431.136L409.935 431.426C410.063 432.075 410.216 432.715 410.394 433.346L411.836 432.94C412.004 433.538 412.196 434.126 412.409 434.704L411.003 435.223C411.232 435.843 411.485 436.451 411.76 437.047L413.12 436.419C413.38 436.982 413.662 437.533 413.964 438.071L412.658 438.805C412.981 439.38 413.325 439.941 413.69 440.487L414.936 439.653C415.28 440.168 415.645 440.67 416.028 441.155L414.852 442.083C415.26 442.6 415.688 443.1 416.135 443.583L417.234 442.566C417.655 443.021 418.093 443.459 418.548 443.88L417.53 444.979C418.013 445.426 418.513 445.855 419.03 446.263L419.959 445.086C420.444 445.469 420.945 445.834 421.46 446.179L420.627 447.424C421.173 447.789 421.734 448.133 422.309 448.456L423.042 447.15C423.58 447.453 424.132 447.734 424.695 447.994L424.067 449.354C424.663 449.629 425.271 449.882 425.892 450.111L426.409 448.705C426.987 448.918 427.576 449.109 428.174 449.277L427.769 450.721C428.399 450.898 429.039 451.05 429.688 451.179L429.979 449.71C430.581 449.829 431.193 449.926 431.812 449.998L431.638 451.485C432.119 451.542 432.604 451.584 433.094 451.613V450.685H433.643L433.663 450.142C433.972 450.154 434.282 450.159 434.594 450.159V448.735H433.094V446.786H434.594V444.837H433.094V442.887H434.594V440.938H433.094V438.988H434.594V437.039H433.094V435.089H434.594V433.14H433.094V431.19H434.594V429.241H433.094V427.291H434.594V425.867H433.546V425.342H433.094V424.367H431.451V425.867H429.356V424.367H427.262V425.867H425.167V424.367H423.071V425.867H420.977V424.367H418.882V425.867H416.787V424.367H414.691V425.867H412.597V424.367H410.954Z" fill="#212121" stroke="#9B9596" stroke-width="3" stroke-dasharray="2 2"/>
<path d="M260.062 362.242L289.367 385.225L314.033 411.58L308.215 415.097L288.075 393.485L261.142 373.016" stroke="#9B9596" stroke-dasharray="2 2"/>
<path d="M365.126 430.249C365.15 430.273 365.15 430.297 365.15 430.321C365.126 430.345 365.102 430.345 365.078 430.345C363.662 429.577 362.198 428.977 360.734 428.329C359.27 427.729 357.782 427.105 356.318 426.529C353.342 425.353 350.366 424.249 347.342 423.241C347.006 423.121 346.67 423.001 346.358 422.905C345.902 423.049 345.446 423.169 344.966 423.289C344.942 423.817 344.918 424.345 344.894 424.873C344.894 424.897 344.87 424.921 344.822 424.921C344.798 424.921 344.798 424.897 344.774 424.873C344.702 424.393 344.654 423.889 344.606 423.385C343.934 423.529 343.262 423.673 342.566 423.745C342.158 423.793 341.75 423.817 341.318 423.793C340.886 423.793 340.454 423.721 340.07 423.601C339.662 423.505 339.23 423.361 338.846 423.121C338.654 423.001 338.462 422.833 338.318 422.617C338.15 422.377 338.078 422.041 338.174 421.777C338.318 421.201 338.798 420.889 339.254 420.745C339.374 420.721 339.494 420.697 339.614 420.697L339.782 420.673H339.95C340.166 420.697 340.358 420.721 340.574 420.745C341.39 420.841 342.182 421.057 342.95 421.249C343.478 421.417 344.006 421.561 344.534 421.729C344.51 421.033 344.534 420.313 344.582 419.617C344.63 418.729 344.654 417.817 344.918 416.977C345.158 416.113 345.494 415.273 346.07 414.553C346.094 414.529 346.118 414.529 346.142 414.553C346.166 414.553 346.166 414.577 346.166 414.577V414.601C346.166 415.489 346.046 416.353 345.95 417.193C345.83 418.057 345.566 418.873 345.422 419.713C345.278 420.433 345.182 421.177 345.11 421.921C345.374 421.993 345.638 422.089 345.902 422.185C346.286 422.065 346.646 421.945 347.006 421.801C348.494 421.249 349.934 420.625 351.326 419.881C352.718 419.161 354.062 418.345 355.286 417.385C355.886 416.905 356.462 416.377 356.942 415.825C357.398 415.273 357.782 414.601 357.758 414.049C357.758 413.497 357.35 413.065 356.678 412.825C356.03 412.585 355.262 412.513 354.494 412.465C352.958 412.417 351.398 412.561 349.838 412.777C348.254 412.993 346.718 413.281 345.158 413.593C343.598 413.905 342.038 414.265 340.502 414.625C338.942 415.009 337.406 415.417 335.87 415.825C335.822 415.825 335.798 415.801 335.798 415.777C335.798 415.753 335.798 415.729 335.822 415.705C338.822 414.601 341.87 413.665 344.99 412.873C346.526 412.465 348.11 412.153 349.694 411.865C351.278 411.601 352.886 411.409 354.542 411.409C355.358 411.457 356.198 411.505 357.062 411.817C357.47 411.985 357.926 412.201 358.286 412.585C358.358 412.681 358.454 412.777 358.526 412.897C358.55 412.945 358.574 412.993 358.622 413.065C358.646 413.137 358.67 413.185 358.694 413.257C358.79 413.497 358.862 413.761 358.862 414.025C358.886 414.553 358.718 415.033 358.502 415.441C358.286 415.825 358.046 416.185 357.758 416.521C357.206 417.169 356.558 417.697 355.91 418.201C354.614 419.185 353.198 420.001 351.758 420.721C350.318 421.441 348.806 422.065 347.294 422.593C347.27 422.617 347.246 422.617 347.198 422.617C347.318 422.665 347.414 422.689 347.51 422.737C350.534 423.817 353.486 424.993 356.438 426.241C357.902 426.865 359.366 427.489 360.83 428.137C362.27 428.809 363.734 429.457 365.126 430.249ZM342.47 422.977C343.166 422.905 343.862 422.737 344.558 422.569C344.558 422.497 344.534 422.425 344.534 422.329C343.958 422.161 343.382 421.993 342.782 421.849C342.014 421.657 341.246 421.465 340.502 421.369C340.31 421.345 340.118 421.345 339.926 421.345H339.806H339.662C339.59 421.345 339.518 421.369 339.446 421.393C339.134 421.489 338.87 421.705 338.822 421.921C338.774 422.113 338.942 422.353 339.23 422.521C339.518 422.713 339.878 422.809 340.238 422.905C340.958 423.097 341.702 423.073 342.47 422.977Z" fill="white"/>
<path d="M443.214 358.648L411.833 378.435L378.57 407.487L380.725 415.388L411.251 388.095L442.137 369.063" stroke="#9B9596" stroke-dasharray="2 2"/>
<path d="M376.422 391.32V417.894H438.193" stroke="#9B9596" stroke-dasharray="2 2"/>
<path d="M312.5 391.148H382.173" stroke="#9B9596" stroke-width="3" stroke-dasharray="2 2"/>
<path d="M314.656 390.625V417.917H267.969" stroke="#9B9596" stroke-dasharray="2 2"/>
<ellipse cx="312.856" cy="410.363" rx="5.387" ry="5.38664" fill="url(#paint3_radial_738_5161)"/>
<ellipse cx="381.09" cy="411.09" rx="5.387" ry="5.38664" fill="url(#paint4_radial_738_5161)"/>
<path d="M311.816 409.069C311.774 408.997 311.706 408.944 311.625 408.923C311.544 408.901 311.458 408.912 311.386 408.954C311.314 408.996 311.261 409.064 311.239 409.145C311.218 409.226 311.229 409.312 311.271 409.384L311.9 410.475L310.81 411.104C310.737 411.146 310.685 411.215 310.663 411.295C310.641 411.376 310.653 411.462 310.695 411.534C310.736 411.607 310.805 411.659 310.886 411.681C310.966 411.703 311.052 411.691 311.125 411.65L312.215 411.02L312.845 412.111C312.887 412.183 312.956 412.236 313.036 412.257C313.117 412.279 313.203 412.267 313.275 412.226C313.347 412.184 313.4 412.115 313.422 412.035C313.443 411.954 313.432 411.868 313.39 411.796L312.761 410.705L313.851 410.075C313.924 410.034 313.976 409.965 313.998 409.884C314.02 409.804 314.008 409.718 313.967 409.645C313.925 409.573 313.856 409.52 313.775 409.499C313.695 409.477 313.609 409.488 313.536 409.53L312.446 410.16L311.816 409.069Z" fill="#9B9596"/>
<path d="M380.793 409.765C380.751 409.692 380.682 409.639 380.601 409.618C380.521 409.596 380.435 409.608 380.363 409.649C380.29 409.691 380.237 409.76 380.216 409.84C380.194 409.921 380.206 410.007 380.247 410.079L380.877 411.17L379.786 411.8C379.714 411.841 379.661 411.91 379.64 411.991C379.618 412.071 379.629 412.157 379.671 412.23C379.713 412.302 379.782 412.355 379.862 412.376C379.943 412.398 380.029 412.387 380.101 412.345L381.192 411.715L381.822 412.806C381.863 412.878 381.932 412.931 382.013 412.952C382.093 412.974 382.179 412.963 382.252 412.921C382.324 412.879 382.377 412.811 382.398 412.73C382.42 412.649 382.409 412.563 382.367 412.491L381.737 411.4L382.828 410.771C382.9 410.729 382.953 410.66 382.975 410.58C382.996 410.499 382.985 410.413 382.943 410.341C382.901 410.268 382.833 410.216 382.752 410.194C382.671 410.172 382.585 410.184 382.513 410.225L381.422 410.855L380.793 409.765Z" fill="#9B9596"/>
<defs>
<filter id="filter0_d_738_5161" x="161.059" y="541.302" width="353.131" height="87.0219" filterUnits="userSpaceOnUse" color-interpolation-filters="sRGB">
<feFlood flood-opacity="0" result="BackgroundImageFix"/>
<feColorMatrix in="SourceAlpha" type="matrix" values="0 0 0 0 0 0 0 0 0 0 0 0 0 0 0 0 0 0 127 0" result="hardAlpha"/>
<feMorphology radius="9" operator="dilate" in="SourceAlpha" result="effect1_dropShadow_738_5161"/>
<feOffset dy="4"/>
<feGaussianBlur stdDeviation="4.65"/>
<feComposite in2="hardAlpha" operator="out"/>
<feColorMatrix type="matrix" values="0 0 0 0 0.94902 0 0 0 0 0.690196 0 0 0 0 0.301961 0 0 0 1 0"/>
<feBlend mode="normal" in2="BackgroundImageFix" result="effect1_dropShadow_738_5161"/>
<feBlend mode="normal" in="SourceGraphic" in2="effect1_dropShadow_738_5161" result="shape"/>
</filter>
<filter id="filter1_i_738_5161" x="247.57" y="129.898" width="215.637" height="355.817" filterUnits="userSpaceOnUse" color-interpolation-filters="sRGB">
<feFlood flood-opacity="0" result="BackgroundImageFix"/>
<feBlend mode="normal" in="SourceGraphic" in2="BackgroundImageFix" result="shape"/>
<feColorMatrix in="SourceAlpha" type="matrix" values="0 0 0 0 0 0 0 0 0 0 0 0 0 0 0 0 0 0 127 0" result="hardAlpha"/>
<feOffset dx="16" dy="20"/>
<feGaussianBlur stdDeviation="4.1"/>
<feComposite in2="hardAlpha" operator="arithmetic" k2="-1" k3="1"/>
<feColorMatrix type="matrix" values="0 0 0 0 0.129412 0 0 0 0 0.129412 0 0 0 0 0.129412 0 0 0 0.25 0"/>
<feBlend mode="normal" in2="shape" result="effect1_innerShadow_738_5161"/>
</filter>
<linearGradient id="paint0_linear_738_5161" x1="341" y1="83" x2="341" y2="711" gradientUnits="userSpaceOnUse">
<stop offset="0.538462" stop-color="#D23C8F"/>
<stop offset="0.923077" stop-color="#171543"/>
</linearGradient>
<radialGradient id="paint1_radial_738_5161" cx="0" cy="0" r="1" gradientTransform="matrix(-1.14112 25.5868 -25.5883 -1.14105 18.3099 18.3089)" gradientUnits="userSpaceOnUse">
<stop stop-color="#00F2FF"/>
<stop offset="1" stop-color="#08293A"/>
</radialGradient>
<radialGradient id="paint2_radial_738_5161" cx="0" cy="0" r="1" gradientTransform="matrix(-1.14112 25.5868 -25.5883 -1.14105 18.3099 18.3089)" gradientUnits="userSpaceOnUse">
<stop stop-color="#00F2FF"/>
<stop offset="1" stop-color="#08293A"/>
</radialGradient>
<radialGradient id="paint3_radial_738_5161" cx="0" cy="0" r="1" gradientUnits="userSpaceOnUse" gradientTransform="translate(312.856 410.363) rotate(90) scale(5.38664 5.387)">
<stop offset="0.730769" stop-color="#212121"/>
<stop offset="0.730869" stop-color="#7A808C"/>
</radialGradient>
<radialGradient id="paint4_radial_738_5161" cx="0" cy="0" r="1" gradientUnits="userSpaceOnUse" gradientTransform="translate(381.09 411.09) rotate(90) scale(5.38664 5.387)">
<stop offset="0.730769" stop-color="#212121"/>
<stop offset="0.730869" stop-color="#7A808C"/>
</radialGradient>
</defs>
</svg>
